<?xml version="1.0" encoding="UTF-8"?>
<svg width="24px" height="24px" viewBox="0 0 24 24" version="1.1" xmlns="http://www.w3.org/2000/svg" xmlns:xlink="http://www.w3.org/1999/xlink">
    <!-- Generator: Sketch 52.2 (67145) - http://www.bohemiancoding.com/sketch -->
    <title>Merge</title>
    <desc>Created with Sketch.</desc>
    <defs>
        <path d="M13,8.41421356 L13,13 C13,13.2652165 12.8946432,13.5195704 12.7071068,13.7071068 L7.70710678,18.7071068 C7.31658249,19.0976311 6.68341751,19.0976311 6.29289322,18.7071068 C5.90236893,18.3165825 5.90236893,17.6834175 6.29289322,17.2928932 L11,12.5857864 L11,8.41421356 L9.70710678,9.70710678 C9.31658249,10.0976311 8.68341751,10.0976311 8.29289322,9.70710678 C7.90236893,9.31658249 7.90236893,8.68341751 8.29289322,8.29289322 L11.2928932,5.29289322 C11.6834175,4.90236893 12.3165825,4.90236893 12.7071068,5.29289322 L15.7071068,8.29289322 C16.0976311,8.68341751 16.0976311,9.31658249 15.7071068,9.70710678 C15.3165825,10.0976311 14.6834175,10.0976311 14.2928932,9.70710678 L13,8.41421356 Z M16.2928932,18.7071068 L13.7928932,16.2071068 C13.4023689,15.8165825 13.4023689,15.1834175 13.7928932,14.7928932 C14.1834175,14.4023689 14.8165825,14.4023689 15.2071068,14.7928932 L17.7071068,17.2928932 C18.0976311,17.6834175 18.0976311,18.3165825 17.7071068,18.7071068 C17.3165825,19.0976311 16.6834175,19.0976311 16.2928932,18.7071068 Z" id="path-1"></path>
    </defs>
    <g id="Merge" stroke="none" stroke-width="1" fill="none" fill-rule="evenodd">
        <mask id="mask-2" fill="white">
            <use xlink:href="#path-1"></use>
        </mask>
        <use id="Mask" fill="#8B8E8F" fill-rule="nonzero" xlink:href="#path-1"></use>
        <g id="Dark" mask="url(#mask-2)" fill="#8B8E8F">
            <rect x="0" y="0" width="24" height="24"></rect>
            <rect id="Color" fill-rule="evenodd" x="0" y="0" width="24" height="24"></rect>
        </g>
    </g>
</svg>