<?xml version="1.0" encoding="UTF-8"?>
<svg width="36px" height="36px" viewBox="0 0 36 36" version="1.1" xmlns="http://www.w3.org/2000/svg" xmlns:xlink="http://www.w3.org/1999/xlink">
    <!-- Generator: Sketch 52.2 (67145) - http://www.bohemiancoding.com/sketch -->
    <title>Desktop</title>
    <desc>Created with Sketch.</desc>
    <g id="Desktop" stroke="none" stroke-width="1" fill="none" fill-rule="evenodd">
        <g id="Group-4" fill="#000000" fill-rule="nonzero">
            <path d="M17.9277108,21.253012 C16.0911977,21.253012 14.6024096,19.764224 14.6024096,17.9277108 C14.6024096,16.0911977 16.0911977,14.6024096 17.9277108,14.6024096 C19.764224,14.6024096 21.253012,16.0911977 21.253012,17.9277108 C21.253012,19.764224 19.764224,21.253012 17.9277108,21.253012 Z M17.9277108,19.8528852 C18.9909553,19.8528852 19.8528852,18.9909553 19.8528852,17.9277108 C19.8528852,16.8644664 18.9909553,16.0025365 17.9277108,16.0025365 C16.8644664,16.0025365 16.0025365,16.8644664 16.0025365,17.9277108 C16.0025365,18.9909553 16.8644664,19.8528852 17.9277108,19.8528852 Z" id="Oval"></path>
            <path d="M18,26.1686747 C13.4885655,26.1686747 9.8313253,22.5114345 9.8313253,18 C9.8313253,13.4885655 13.4885655,9.8313253 18,9.8313253 C22.5114345,9.8313253 26.1686747,13.4885655 26.1686747,18 C26.1686747,22.5114345 22.5114345,26.1686747 18,26.1686747 Z M18,24.778262 C21.7435307,24.778262 24.778262,21.7435307 24.778262,18 C24.778262,14.2564693 21.7435307,11.221738 18,11.221738 C14.2564693,11.221738 11.221738,14.2564693 11.221738,18 C11.221738,21.7435307 14.2564693,24.778262 18,24.778262 Z" id="Oval"></path>
            <path d="M18,31.0843373 C10.77372,31.0843373 4.91566265,25.22628 4.91566265,18 C4.91566265,10.77372 10.77372,4.91566265 18,4.91566265 C25.22628,4.91566265 31.0843373,10.77372 31.0843373,18 C31.0843373,25.22628 25.22628,31.0843373 18,31.0843373 Z M18,29.6886747 C24.4554768,29.6886747 29.6886747,24.4554768 29.6886747,18 C29.6886747,11.5445232 24.4554768,6.3113253 18,6.3113253 C11.5445232,6.3113253 6.3113253,11.5445232 6.3113253,18 C6.3113253,24.4554768 11.5445232,29.6886747 18,29.6886747 Z" id="Oval"></path>
            <path d="M18,36 C8.0588745,36 0,27.9411255 0,18 C0,8.0588745 8.0588745,0 18,0 C27.9411255,0 36,8.0588745 36,18 C36,27.9411255 27.9411255,36 18,36 Z M18,34.6019417 C27.1689992,34.6019417 34.6019417,27.1689992 34.6019417,18 C34.6019417,8.83100076 27.1689992,1.39805825 18,1.39805825 C8.83100076,1.39805825 1.39805825,8.83100076 1.39805825,18 C1.39805825,27.1689992 8.83100076,34.6019417 18,34.6019417 Z" id="Oval"></path>
        </g>
    </g>
</svg>